<svg width="18" height="21" viewBox="0 0 18 21" fill="none" xmlns="http://www.w3.org/2000/svg">
<path fill-rule="evenodd" clip-rule="evenodd" d="M14.6633 1.61765C14.8879 1.63319 15.1122 1.65026 15.336 1.66883C16.8753 1.79659 18 3.10281 18 4.60821V14.25C18 15.9068 16.6569 17.25 15 17.25V15C15 9.07808 10.4244 4.22484 4.61572 3.78281C4.93989 2.65127 5.91565 1.77245 7.16409 1.66883C7.38791 1.65026 7.61215 1.63319 7.83681 1.61765C8.33672 0.656468 9.34172 0 10.5 0H12C13.1584 0 14.1634 0.656468 14.6633 1.61765ZM9.00004 3C9.00004 2.17157 9.67162 1.5 10.5 1.5H12C12.8285 1.5 13.5 2.17157 13.5 3H9.00004Z" fill="black"/>
<path d="M0 7.125C0 6.08947 0.839466 5.25 1.875 5.25H2.25C4.32107 5.25 6 6.92893 6 9V10.875C6 11.9105 6.83947 12.75 7.875 12.75H9.75C11.8211 12.75 13.5 14.4289 13.5 16.5V19.125C13.5 20.1605 12.6605 21 11.625 21H1.875C0.839466 21 0 20.1605 0 19.125V7.125Z" fill="black"/>
<path d="M7.5 9C7.5 7.68695 7.01796 6.48648 6.22119 5.5659C9.62012 6.45377 12.2962 9.12988 13.1841 12.5288C12.2635 11.732 11.0631 11.25 9.75 11.25H7.875C7.66789 11.25 7.5 11.0821 7.5 10.875V9Z" fill="black"/>
</svg>
