<svg width="204" height="72" viewBox="0 0 204 72" fill="none" xmlns="http://www.w3.org/2000/svg">
<path fill-rule="evenodd" clip-rule="evenodd" d="M36.053 0C55.9518 0 72.1059 16.1311 72.1059 36C72.1059 55.8689 55.9518 72 36.053 72C16.1561 72 0 55.8689 0 36C0 16.1311 16.1561 0 36.053 0ZM52.5337 20.5471C46.8091 20.5471 40.204 27.3572 37.7958 35.7454C35.3877 44.1333 38.0807 50.9434 43.8054 50.9434C49.53 50.9434 56.1351 44.1333 58.5433 35.7454C60.9534 27.3572 58.2604 20.5471 52.5337 20.5471ZM28.3026 20.5471C22.5759 20.5471 15.9729 27.3572 13.5627 35.7454C11.1545 44.1333 13.8475 50.9434 19.5722 50.9434C25.2988 50.9434 31.9019 44.1333 34.3121 35.7454C36.7202 27.3572 34.0272 20.5471 28.3026 20.5471ZM92.67 51.7446C88.8576 51.7446 85.826 50.6994 83.5732 48.6086C81.3203 46.5182 80.1949 43.5265 80.1949 39.6335V32.3665C80.1949 28.4735 81.3203 25.4818 83.5732 23.3914C85.826 21.3006 88.8576 20.2554 92.67 20.2554C96.4825 20.2554 99.5142 21.3006 101.767 23.3914C104.02 25.4818 105.147 28.4735 105.147 32.3665V39.6335C105.147 43.5265 104.02 46.5182 101.767 48.6086C99.5142 50.6994 96.4825 51.7446 92.67 51.7446ZM92.67 46.6406C94.8073 46.6406 96.4685 46.0207 97.6517 44.7807C98.8369 43.5407 99.4285 41.8827 99.4285 39.8064V32.1936C99.4285 30.1173 98.8369 28.4593 97.6517 27.2193C96.4685 25.9793 94.8073 25.3594 92.67 25.3594C90.5626 25.3594 88.9094 25.9793 87.7103 27.2193C86.5112 28.4593 85.9136 30.1173 85.9136 32.1936V39.8064C85.9136 41.8827 86.5112 43.5407 87.7103 44.7807C88.9094 46.0207 90.5626 46.6406 92.67 46.6406ZM121.955 51.7446C118.142 51.7446 115.111 50.6994 112.858 48.6086C110.605 46.5182 109.478 43.5265 109.478 39.6335V32.3665C109.478 28.4735 110.605 25.4818 112.858 23.3914C115.111 21.3006 118.142 20.2554 121.955 20.2554C125.765 20.2554 128.799 21.3006 131.052 23.3914C133.304 25.4818 134.43 28.4735 134.43 32.3665V39.6335C134.43 43.5265 133.304 46.5182 131.052 48.6086C128.799 50.6994 125.765 51.7446 121.955 51.7446ZM121.955 46.6406C124.092 46.6406 125.751 46.0207 126.936 44.7807C128.119 43.5407 128.711 41.8827 128.711 39.8064V32.1936C128.711 30.1173 128.119 28.4593 126.936 27.2193C125.751 25.9793 124.092 25.3594 121.955 25.3594C119.845 25.3594 118.192 25.9793 116.995 27.2193C115.796 28.4593 115.196 30.1173 115.196 32.1936V39.8064C115.196 41.8827 115.796 43.5407 116.995 44.7807C118.192 46.0207 119.845 46.6406 121.955 46.6406ZM139.455 51.1393V20.8607H145.172V51.1393H139.455ZM150.891 51.1393V20.8607H161.764L167.786 47.2463H168.564V20.8607H174.196V51.1393H163.324L157.302 24.7537H156.522V51.1393H150.891ZM179.914 51.1393V20.8607H185.633V32.8856H186.412L196.246 20.8607H203.566L190.917 35.7836L204 51.1393H196.463L186.412 38.8549H185.633V51.1393H179.914Z" fill="#FF78A9"/>
</svg>
