<svg width="268" height="101" viewBox="0 0 268 101" fill="none" xmlns="http://www.w3.org/2000/svg">
<g clip-path="url(#clip0_268_25)">
<path fill-rule="evenodd" clip-rule="evenodd" d="M27.9675 91.2845C19.2684 92.0461 12.4015 90.2611 7.33054 85.9324C2.27762 81.604 -0.170778 74.9882 -0.015562 66.0886L0.274171 49.4763C0.429388 40.5768 3.1164 33.5113 8.33599 28.2835C13.5737 23.0522 20.524 20.0573 29.223 19.2956C37.9221 18.5339 44.8071 20.3174 49.86 24.6476C54.9129 28.976 57.3622 35.5918 57.207 44.4913L56.9172 61.1036C56.762 70.0031 54.0741 77.0687 48.8545 82.2966C43.6349 87.5263 36.6666 90.5228 27.9675 91.2845ZM28.171 79.6168C33.054 79.1892 36.8587 77.4398 39.621 74.3672C42.3651 71.298 43.7872 67.3872 43.8699 62.6416L44.1735 45.2369C44.2563 40.4913 42.9664 36.8197 40.3211 34.2206C37.6578 31.6231 33.9026 30.5375 29.0195 30.9651C24.2088 31.3863 20.4228 33.1322 17.6243 36.208C14.844 39.2821 13.4034 43.1928 13.3206 47.9384L13.017 65.3431C12.9343 70.0887 14.2427 73.7604 16.9241 76.3546C19.6237 78.9489 23.3603 80.038 28.171 79.6168ZM94.7934 85.4332C86.0943 86.1949 79.2093 84.4114 74.1564 80.0811C69.1035 75.7527 66.6542 69.137 66.8095 60.2374L67.0992 43.6251C67.2544 34.7256 69.9423 27.6601 75.1619 22.4322C80.3815 17.2025 87.3499 14.206 96.0489 13.4443C104.748 12.6826 111.615 14.4677 116.686 18.7964C121.739 23.1248 124.187 29.7406 124.032 38.6401L123.742 55.2524C123.587 64.1519 120.9 71.2174 115.68 76.4453C110.443 81.6766 103.492 84.6715 94.7934 85.4332ZM94.9969 73.7655C99.8799 73.338 103.684 71.5886 106.428 68.5176C109.191 65.4468 110.595 61.5375 110.678 56.7919L110.982 39.3872C111.065 34.6416 109.792 30.9685 107.129 28.371C104.483 25.7719 100.728 24.6862 95.8454 25.1138C91.0347 25.535 87.2297 27.2826 84.4494 30.3568C81.669 33.4309 80.2284 37.3416 80.1456 42.0872L79.8421 59.4919C79.7593 64.2375 81.0677 67.9092 83.7492 70.5034C86.4306 73.0993 90.1862 74.1868 94.9969 73.7655ZM134.803 100.294L136.003 31.4699L148.265 30.3963L148.161 36.3305L149.934 36.1753C151.089 34.1647 152.855 32.3157 155.268 30.6231C157.663 28.9321 161.057 27.8942 165.488 27.5062C169.431 27.161 173.067 27.8145 176.397 29.463C179.727 31.1134 182.39 33.7272 184.35 37.3076C186.329 40.8864 187.28 45.3445 187.186 50.6854L187.159 52.2667C187.066 57.6075 185.956 62.2461 183.847 66.1828C181.756 70.1179 178.993 73.2067 175.595 75.4462C172.198 77.6856 168.527 78.9771 164.585 79.3223C161.619 79.582 159.129 79.4549 157.134 78.9378C155.138 78.4224 153.544 77.6732 152.333 76.6918C151.14 75.7105 150.183 74.6924 149.479 73.634L147.688 73.7908L147.245 99.2049L134.803 100.294ZM161.012 68.7746C164.901 68.4341 168.124 66.9182 170.717 64.2217C173.292 61.5286 174.621 57.8083 174.704 53.061L174.721 52.0731C174.804 47.3257 173.583 43.8287 171.058 41.5822C168.533 39.3357 165.353 38.3785 161.537 38.7126C157.703 39.0483 154.498 40.5645 151.887 43.2608C149.276 45.9571 147.928 49.6789 147.845 54.4263L147.828 55.4142C147.745 60.1616 148.967 63.6584 151.492 65.905C154.017 68.1533 157.178 69.1103 161.012 68.7746ZM218.551 74.597C212.149 75.1576 206.947 74.2311 202.908 71.8191C198.869 69.4088 196.46 65.6709 195.699 60.6035L207.218 56.6323C207.63 58.8995 208.375 60.6443 209.437 61.8682C210.5 63.0921 211.84 63.9123 213.44 64.3322C215.058 64.7505 216.807 64.8756 218.724 64.7078C221.617 64.4544 223.779 63.7557 225.171 62.6131C226.582 61.469 227.291 60.1406 227.317 58.6244C227.344 57.1083 226.695 55.9963 225.408 55.2871C224.102 54.5777 221.997 54.0882 219.113 53.8133L216.354 53.5617C212.929 53.204 209.817 52.5715 206.998 51.6658C204.196 50.7586 201.945 49.3606 200.263 47.4666C198.599 45.571 197.776 43.0111 197.832 39.7816C197.917 34.9021 199.773 31.0038 203.363 28.09C206.972 25.1746 211.679 23.4618 217.484 22.9535C222.946 22.4752 227.464 23.2972 231.057 25.4177C234.631 27.5416 236.945 30.5311 237.997 34.3878L226.378 38.9603C225.897 36.5004 224.843 34.8152 223.252 33.9014C221.66 32.9875 219.681 32.6352 217.311 32.8427C214.924 33.0517 213.108 33.6208 211.846 34.5551C210.583 35.4876 209.931 36.6809 209.906 38.1319C209.879 39.7131 210.527 40.8251 211.816 41.4692C213.123 42.1116 214.903 42.532 217.139 42.7301L219.897 42.9836C223.575 43.3191 226.906 43.9 229.871 44.726C232.854 45.5505 235.196 46.8936 236.915 48.75C238.616 50.608 239.455 53.2497 239.396 56.6781C239.306 61.8199 237.374 65.9561 233.6 69.0829C229.825 72.2116 224.809 74.0491 218.551 74.597ZM251.888 47.5871L252.698 1.11003L265.358 0.0015375L264.548 46.4786L251.888 47.5871ZM257.887 71.1527C255.192 71.3887 252.947 70.7128 251.169 69.1252C249.373 67.5374 248.508 65.3587 248.556 62.5906C248.604 59.8207 249.548 57.4836 251.405 55.5778C253.244 53.6717 255.52 52.5999 258.215 52.364C260.855 52.1328 263.047 52.8134 264.788 54.4059C266.548 55.9951 267.395 58.1754 267.347 60.9453C267.299 63.7134 266.373 66.0489 264.552 67.9534C262.749 69.8545 260.527 70.9215 257.887 71.1527Z" fill="#FF78A9"/>
</g>
<defs>
<clipPath id="clip0_268_25">
<rect width="268" height="101" fill="white"/>
</clipPath>
</defs>
</svg>
