<svg width="16" height="16" viewBox="0 0 16 16" fill="none" xmlns="http://www.w3.org/2000/svg">
<path d="M11 2.5C11 1.11929 12.1193 0 13.5 0C14.8807 0 16 1.11929 16 2.5C16 3.88071 14.8807 5 13.5 5C12.7943 5 12.1569 4.70762 11.7024 4.23739L4.96884 7.60415C4.98935 7.73308 5 7.8653 5 8C5 8.13473 4.98934 8.26697 4.96882 8.39593L11.7023 11.7627C12.1569 11.2924 12.7943 11 13.5 11C14.8807 11 16 12.1193 16 13.5C16 14.8807 14.8807 16 13.5 16C12.1193 16 11 14.8807 11 13.5C11 13.3653 11.0107 13.2331 11.0312 13.1041L4.29764 9.73739C3.84307 10.2076 3.20568 10.5 2.5 10.5C1.11929 10.5 0 9.38071 0 8C0 6.61929 1.11929 5.5 2.5 5.5C3.20571 5.5 3.84312 5.79241 4.29769 6.26267L11.0312 2.89593C11.0107 2.76697 11 2.63473 11 2.5Z" fill="#FF004F"/>
</svg>
