<?xml version="1.0" encoding="UTF-8" standalone="no"?>
<!DOCTYPE svg PUBLIC "-//W3C//DTD SVG 1.1//EN" "http://www.w3.org/Graphics/SVG/1.1/DTD/svg11.dtd">
<svg width="100%" height="100%" viewBox="0 0 210 174" version="1.1" xmlns="http://www.w3.org/2000/svg" xmlns:xlink="http://www.w3.org/1999/xlink" xml:space="preserve" xmlns:serif="http://www.serif.com/" style="fill-rule:evenodd;clip-rule:evenodd;stroke-linejoin:round;stroke-miterlimit:2;">
    <g transform="matrix(1,0,0,1,-407.219,-305.048)">
        <g>
            <g transform="matrix(4.1447,0,0,4.1447,-651.555,-877.77)">
                <g transform="matrix(12,0,0,12,255.321,326.96)">
                    <path d="M0.169,0.001L0.377,0.001L0.377,-0.583L0.535,-0.583L0.535,-0.765L0.011,-0.765L0.011,-0.583L0.169,-0.583L0.169,0.001Z" style="fill:white;fill-rule:nonzero;"/>
                </g>
                <g transform="matrix(12,0,0,12,261.873,326.96)">
                    <path d="M0.251,-0.248C0.264,-0.23 0.434,-0 0.434,-0L0.669,-0L0.409,-0.331L0.651,-0.614L0.426,-0.614L0.251,-0.393L0.251,-0.766L0.065,-0.766L0.065,-0L0.251,-0L0.251,-0.248Z" style="fill:white;fill-rule:nonzero;"/>
                </g>
                <g transform="matrix(12,0,0,12,269.757,326.96)">
                    <path d="M0.252,-0L0.252,-0.444L0.351,-0.444L0.351,-0.614L0.252,-0.614L0.252,-0.766L0.065,-0.766L0.065,-0.614L0.004,-0.614L0.004,-0.445L0.065,-0.445L0.065,-0L0.252,-0Z" style="fill:white;fill-rule:nonzero;"/>
                </g>
                <g transform="matrix(12,0,0,12,274.029,326.96)">
                    <path d="M0.251,-0.248C0.264,-0.23 0.434,-0 0.434,-0L0.669,-0L0.409,-0.331L0.651,-0.614L0.426,-0.614L0.251,-0.393L0.251,-0.766L0.065,-0.766L0.065,-0L0.251,-0L0.251,-0.248Z" style="fill:white;fill-rule:nonzero;"/>
                </g>
                <g transform="matrix(12,0,0,12,281.913,326.96)">
                    <path d="M0.147,-0.202C0.084,-0.202 0.032,-0.15 0.032,-0.087C0.032,-0.024 0.084,0.028 0.147,0.028C0.21,0.028 0.262,-0.024 0.262,-0.087C0.262,-0.15 0.21,-0.202 0.147,-0.202Z" style="fill:white;fill-rule:nonzero;"/>
                </g>
                <g transform="matrix(12,0,0,12,285.513,326.96)">
                    <path d="M0.795,-0.626C0.683,-0.626 0.643,-0.579 0.594,-0.528C0.564,-0.585 0.502,-0.626 0.421,-0.626C0.317,-0.626 0.248,-0.534 0.248,-0.534L0.248,-0.614L0.065,-0.614L0.065,-0L0.252,-0L0.252,-0.336C0.252,-0.412 0.292,-0.455 0.352,-0.455C0.41,-0.455 0.432,-0.427 0.432,-0.36L0.432,-0L0.621,-0L0.621,-0.335C0.621,-0.409 0.661,-0.455 0.721,-0.455C0.781,-0.455 0.805,-0.427 0.805,-0.358L0.805,0.002L0.992,0.002L0.992,-0.42C0.992,-0.536 0.917,-0.626 0.795,-0.626Z" style="fill:white;fill-rule:nonzero;"/>
                </g>
                <g transform="matrix(12,0,0,12,298.197,326.96)">
                    <path d="M0.035,-0.306C0.035,-0.1 0.165,0.015 0.354,0.015C0.483,0.015 0.587,-0.049 0.641,-0.145C0.607,-0.166 0.496,-0.23 0.496,-0.23C0.464,-0.188 0.424,-0.145 0.363,-0.145C0.293,-0.145 0.235,-0.18 0.219,-0.253L0.651,-0.253C0.652,-0.267 0.651,-0.275 0.651,-0.29C0.651,-0.509 0.526,-0.626 0.349,-0.626C0.168,-0.626 0.035,-0.492 0.035,-0.306ZM0.347,-0.47C0.405,-0.47 0.437,-0.442 0.459,-0.383L0.226,-0.383C0.249,-0.44 0.284,-0.47 0.347,-0.47Z" style="fill:white;fill-rule:nonzero;"/>
                </g>
            </g>
            <path d="M512.004,305.048C521.16,305.048 528.967,308.725 533.91,314.903C538.854,321.072 541.043,329.159 541.043,337.845L541.043,342.378L528.596,342.378L528.596,337.845C528.596,331.215 526.976,326 524.319,322.676C521.662,319.353 518.067,317.494 512.004,317.494C505.958,317.494 502.347,319.468 499.69,322.808C497.032,326.148 495.412,331.297 495.412,337.845L495.412,342.378L482.966,342.378L482.966,337.845C482.966,329.208 485.022,321.204 489.966,315.026C494.91,308.856 502.832,305.048 512.004,305.048Z" style="fill:url(#_Linear1);"/>
            <g>
                <path d="M482.966,346.524L541.043,346.524C547.911,346.524 553.481,352.101 553.481,358.97L553.481,400.455C553.481,407.324 547.911,412.893 541.043,412.893L482.966,412.893C476.097,412.893 470.519,407.324 470.519,400.455L470.519,358.97C470.519,352.101 476.097,346.524 482.966,346.524ZM512,372.45C508.737,367 502.21,367 498.947,369.725C495.684,372.45 495.684,377.9 498.947,383.35C501.232,387.438 507.105,391.525 512,394.25C516.895,391.525 522.768,387.438 525.053,383.35C528.316,377.9 528.316,372.45 525.053,369.725C521.789,367 515.263,367 512,372.45Z" style="fill:white;"/>
            </g>
        </g>
    </g>
    <defs>
        <linearGradient id="_Linear1" x1="0" y1="0" x2="1" y2="0" gradientUnits="userSpaceOnUse" gradientTransform="matrix(58.0769,0,0,58.0769,482.966,323.713)"><stop offset="0" style="stop-color:rgb(0,242,234);stop-opacity:1"/><stop offset="1" style="stop-color:rgb(255,0,79);stop-opacity:1"/></linearGradient>
    </defs>
</svg>
